<svg xmlns="http://www.w3.org/2000/svg" viewBox="0 0 60 60"><path d="M60 15h-4V2.985A2.988 2.988 0 0 0 53.015 0h-4.03A2.988 2.988 0 0 0 46 2.985V15H0v33h46v2.266l4 7V59a1 1 0 1 0 2 0v-1.734l4-7V48h4V15zm-6-4h-6V9h6v2zm-6-8.015c0-.543.442-.985.985-.985h4.03c.543 0 .985.442.985.985V7h-6V2.985zM2 46V17h44v29H2zm49 8.984L48.723 51h4.554L51 54.984zM54 49h-6V13h6v36zm4-3h-2V17h2v29z"/><path d="M39 26h-3a1 1 0 1 0 0 2h3a1 1 0 1 0 0-2zM21 24h3a1 1 0 1 0 0-2h-3a1 1 0 1 0 0 2zM39 22h-7a1 1 0 1 0 0 2h7a1 1 0 1 0 0-2zM28 24c.26 0 .52-.11.71-.29.18-.19.29-.45.29-.71s-.11-.521-.29-.71c-.38-.37-1.05-.37-1.42 0-.18.189-.29.45-.29.71s.11.52.29.71c.19.18.44.29.71.29zM24 27a1 1 0 0 0 1 1h7a1 1 0 1 0 0-2h-7a1 1 0 0 0-1 1zM21 28c.26 0 .52-.11.71-.29.18-.19.29-.45.29-.71 0-.271-.11-.521-.29-.71-.38-.37-1.05-.37-1.42 0-.18.189-.29.439-.29.71 0 .26.11.52.29.71.19.18.44.29.71.29zM11 23.101V22a1 1 0 1 0-2 0v1.105a4.985 4.985 0 0 0-2.818 1.668 3.438 3.438 0 0 0-.794 2.603 3.65 3.65 0 0 0 1.383 2.491L9 31.6v5.438a2.996 2.996 0 0 1-2-2.816 1 1 0 1 0-2 0 5.01 5.01 0 0 0 4 4.899V40a1 1 0 1 0 2 0v-.882a4.991 4.991 0 0 0 2.819-1.668 3.444 3.444 0 0 0 .793-2.605 3.646 3.646 0 0 0-1.383-2.488L11 30.622v-5.438c1.161.414 2 1.514 2 2.816a1 1 0 1 0 2 0 5.01 5.01 0 0 0-4-4.899zm1.001 10.834c.349.271.576.68.622 1.118.043.41-.075.803-.331 1.105a2.988 2.988 0 0 1-1.292.875v-3.878l1.001.78zm-4.002-5.647a1.642 1.642 0 0 1-.622-1.12 1.46 1.46 0 0 1 .331-1.104A2.988 2.988 0 0 1 9 25.189v3.877l-1.001-.778zM24.145 33.4c-2.19 1.14-2.928 3.321-3.196 5.582l-1.241-1.04c-.98-.821-2.402.586-1.414 1.414l2.806 2.351c.658.552 1.677.203 1.707-.707.073-2.166.175-4.742 2.348-5.873 1.141-.594.131-2.321-1.01-1.727zM30.795 37.389c-1.385.321-2.961 2.083-3.936.106-.569-1.154-2.295-.142-1.727 1.009.517 1.049 1.5 1.783 2.669 1.931.594.075 1.131-.009 1.688-.226.409-.159 1.937-1.307 2.267-.717.628 1.124 2.356.116 1.727-1.009-.537-.961-1.624-1.341-2.688-1.094z"/></svg>