<svg xmlns="http://www.w3.org/2000/svg" viewBox="0 0 60 60"><path d="M55.783 8H4.217A4.222 4.222 0 0 0 0 12.217v35.566A4.222 4.222 0 0 0 4.217 52h51.566A4.222 4.222 0 0 0 60 47.783V12.217A4.222 4.222 0 0 0 55.783 8zM3 16a1 1 0 0 0 1-1h4a1 1 0 0 0 2 0h4a1 1 0 0 0 2 0h4a1 1 0 0 0 2 0h4a1 1 0 0 0 2 0h4a1 1 0 0 0 2 0h4a1 1 0 0 0 2 0h4a1 1 0 0 0 2 0h4a1 1 0 0 0 2 0h4a1 1 0 0 0 2 0v6a1 1 0 0 0-2 0h-4a1 1 0 0 0-2 0h-4a1 1 0 0 0-2 0h-4a1 1 0 0 0-2 0h-4a1 1 0 0 0-2 0h-4a1 1 0 0 0-2 0h-4a1 1 0 0 0-2 0h-4a1 1 0 0 0-2 0h-4a1 1 0 0 0-2 0H4a1 1 0 0 0-2 0v-6a1 1 0 0 0 1 1zm55 31.783A2.22 2.22 0 0 1 55.783 50H4.217A2.22 2.22 0 0 1 2 47.783V23h56v24.783zM2 13v-.783A2.22 2.22 0 0 1 4.217 10h51.566A2.22 2.22 0 0 1 58 12.217V13H2z"/><path d="M7 29h9a1 1 0 0 0 0-2H7a1 1 0 0 0 0 2zM20 29h9a1 1 0 0 0 0-2h-9a1 1 0 0 0 0 2zM7 34h1a1 1 0 0 0 0-2H7a1 1 0 0 0 0 2zM14 32h-2a1 1 0 0 0 0 2h2a1 1 0 0 0 0-2zM18 34h1a1 1 0 0 0 0-2h-1a1 1 0 0 0 0 2zM25 32h-2a1 1 0 0 0 0 2h2a1 1 0 0 0 0-2zM28.29 32.29c-.18.19-.29.45-.29.71 0 .27.11.52.29.71.19.18.45.29.71.29.26 0 .52-.11.71-.29.18-.19.29-.45.29-.71 0-.26-.11-.52-.29-.71-.38-.37-1.05-.37-1.42 0z"/><circle cx="24" cy="18" r="1"/><circle cx="30" cy="18" r="1"/><circle cx="18" cy="18" r="1"/><circle cx="6" cy="18" r="1"/><circle cx="12" cy="18" r="1"/><circle cx="54" cy="18" r="1"/><circle cx="48" cy="18" r="1"/><circle cx="36" cy="18" r="1"/><circle cx="42" cy="18" r="1"/><path d="M41 47a6.953 6.953 0 0 0 3.5-.947A6.953 6.953 0 0 0 48 47c3.859 0 7-3.14 7-7s-3.141-7-7-7a6.953 6.953 0 0 0-3.5.947A6.953 6.953 0 0 0 41 33c-3.86 0-7 3.14-7 7s3.14 7 7 7zm2-7a4.98 4.98 0 0 1 1.5-3.562 4.98 4.98 0 0 1 0 7.124A4.98 4.98 0 0 1 43 40zm10 0c0 2.757-2.243 5-5 5-.631 0-1.23-.13-1.787-.345C47.32 43.417 48 41.788 48 40s-.68-3.417-1.787-4.655A4.946 4.946 0 0 1 48 35c2.757 0 5 2.243 5 5zm-12-5c.631 0 1.23.13 1.787.345C41.68 36.583 41 38.212 41 40s.68 3.417 1.787 4.655A4.946 4.946 0 0 1 41 45c-2.757 0-5-2.243-5-5s2.243-5 5-5z"/></svg>