<svg xmlns="http://www.w3.org/2000/svg" viewBox="0 0 60 60"><path d="M37.5 22h-25a1 1 0 0 0 0 2h25a1 1 0 0 0 0-2zM12.5 16h10a1 1 0 0 0 0-2h-10a1 1 0 0 0 0 2zM37.5 30h-25a1 1 0 0 0 0 2h25a1 1 0 0 0 0-2zM32.5 38h-20a1 1 0 0 0 0 2h20a1 1 0 0 0 0-2zM29.5 48a1 1 0 0 0 0-2h-17a1 1 0 0 0 0 2h17z"/><path d="M3.5 2h29v14h14v15h2V14.586L33.914 0H1.5v60h32v-2h-30V2zm31 1.414L45.086 14H34.5V3.414z"/><path d="M54.5 42v-1c0-3.86-3.14-7-7-7s-7 3.14-7 7v1h-4v18h22V42h-4zm-12-1c0-2.757 2.243-5 5-5s5 2.243 5 5v1h-10v-1zm14 17h-18V44h18v14z"/><path d="M47.5 46c-2.206 0-4 1.794-4 4 0 1.858 1.28 3.411 3 3.858V55a1 1 0 0 0 2 0v-1.142c1.72-.447 3-2 3-3.858 0-2.206-1.794-4-4-4zm0 6c-1.103 0-2-.897-2-2s.897-2 2-2 2 .897 2 2-.897 2-2 2z"/></svg>