<svg xmlns="http://www.w3.org/2000/svg" viewBox="0 0 480 480"><path d="M317.851 360c0 5.522-4.477 10-10 10H142.656c-5.523 0-10-4.478-10-10s4.477-10 10-10h165.195c5.523 0 10 4.478 10 10zm2.503-170c0 55.141-44.859 100-99.997 100h-.218c-55.138 0-99.997-44.859-99.997-100S165 90 220.139 90h.218c55.138 0 99.997 44.859 99.997 100zm-179.591-10h39.45v-50c0-3.461.442-6.821 1.272-10.026-21.86 12.116-37.484 34.175-40.722 60.026zm40.722 80.026A39.901 39.901 0 0 1 180.213 250v-50h-39.45c3.238 25.851 18.863 47.91 40.722 60.026zM240.283 200h-40.071v50c0 11.028 8.972 20 19.999 20 11.1 0 20.072-8.972 20.072-20v-50zm0-70c0-11.028-8.971-20-19.999-20-11.1 0-20.072 8.972-20.072 20v50h40.071v-50zm59.449 70h-39.45v50c0 3.461-.442 6.821-1.272 10.026 21.86-12.116 37.484-34.175 40.722-60.026zm0-20c-3.238-25.851-18.863-47.91-40.722-60.026A39.901 39.901 0 0 1 260.282 130v50h39.45zm177.201-39.736l-96.509 232.907V430c0 27.57-22.429 50-49.999 50H29.999C13.458 480 0 466.542 0 450V30C0 13.458 13.458 0 29.999 0h300.427c27.57 0 49.999 22.43 49.999 50v7.07l74.825 30.932c9.881 4.084 17.579 11.77 21.675 21.64 4.097 9.872 4.1 20.748.008 30.622zM60.071 20H29.999c-5.514 0-10 4.486-10 10v420c0 5.514 4.486 10 10 10h30.072V20zm300.354 30c0-16.542-13.458-30-29.999-30H80.07v440h250.356c16.542 0 29.999-13.458 29.999-30V151.84a9.908 9.908 0 0 1 0-3.108V64.02a9.471 9.471 0 0 1 0-.533V50zm98.028 67.308a19.882 19.882 0 0 0-10.844-10.823l-67.185-27.772v64.938l16.443 6.798c5.104 2.109 7.531 7.957 5.421 13.062-2.11 5.104-7.959 7.529-13.062 5.421l-8.802-3.639v155.634l55.058-132.873-10.636-4.397c-5.104-2.109-7.531-7.958-5.421-13.062 2.111-5.104 7.957-7.532 13.062-5.421l10.653 4.403 15.318-36.969a19.84 19.84 0 0 0-.005-15.3z"/></svg>